<?xml version="1.0" encoding="UTF-8"?>
<!DOCTYPE svg PUBLIC "-//W3C//DTD SVG 1.1//EN" "http://www.w3.org/Graphics/SVG/1.1/DTD/svg11.dtd">
<!-- Creator: CorelDRAW 2021 (64-Bit) -->
<svg xmlns="http://www.w3.org/2000/svg" xml:space="preserve" width="27.1224mm" height="42.342mm" version="1.1" style="shape-rendering:geometricPrecision; text-rendering:geometricPrecision; image-rendering:optimizeQuality; fill-rule:evenodd; clip-rule:evenodd"
viewBox="0 0 129.16 201.64"
 xmlns:xlink="http://www.w3.org/1999/xlink"
 xmlns:xodm="http://www.corel.com/coreldraw/odm/2003">
 <defs>
  <style type="text/css">
   <![CDATA[
    .fil0 {fill:#00B5BD}
   ]]>
  </style>
 </defs>
 <g id="Capa_x0020_1">
  <metadata id="CorelCorpID_0Corel-Layer"/>
  <path class="fil0" d="M64.21 135.23c-3.82,2.45 -8.9,1.34 -11.35,-2.48 -2.45,-3.81 -1.34,-8.9 2.48,-11.35 10.44,-6.74 16.86,-18.36 20.66,-31.65 5.6,-19.58 5.5,-42.66 4.02,-60.29 -0.41,-4.9 -0.59,-6.72 -0.73,-8.21 -1.03,-10.83 -1.67,-17.43 4.28,-20.38 7.24,-3.57 12.53,3.61 22.04,22.85 8.52,17.22 17.45,45.2 21.42,72.29 3.22,21.93 3.21,43.62 -2.76,59.34 -7.67,20.21 -21.58,33.68 -37.36,40.66 -10.64,4.7 -22.15,6.43 -33.19,5.27 -11.15,-1.16 -21.86,-5.28 -30.79,-12.25 -11.95,-9.33 -20.64,-23.65 -22.83,-42.72 -0.05,-0.42 -0.06,-0.83 -0.05,-1.24 -0.06,-2.16 -0.02,-4.18 0.1,-6.07 1.24,-18.87 10.46,-31.62 22.19,-39.76 11.28,-7.82 24.93,-11.18 35.77,-11.55 2.04,-0.07 3.92,-0.04 5.6,0.07 4.53,0.28 7.97,4.19 7.69,8.71 -0.28,4.52 -4.19,7.97 -8.71,7.68 -1.34,-0.09 -2.71,-0.11 -4.06,-0.07 -8.21,0.28 -18.51,2.81 -26.96,8.66 -7.98,5.54 -14.26,14.28 -15.12,27.28 -0.1,1.51 -0.14,3.04 -0.1,4.54 1.67,14.26 7.97,24.81 16.58,31.53 6.43,5.02 14.21,7.99 22.36,8.84 8.25,0.86 16.89,-0.45 24.9,-3.99 12.03,-5.31 22.67,-15.71 28.62,-31.4 4.88,-12.84 4.72,-31.67 1.86,-51.17 -2.71,-18.5 -7.83,-37.32 -13.45,-52.34 0.22,15.48 -1.05,32.67 -5.49,48.2 -4.8,16.81 -13.32,31.74 -27.61,40.97z"/>
 </g>
</svg>
